<svg width="48" height="48" viewBox="0 0 48 48" fill="none" xmlns="http://www.w3.org/2000/svg">
<path d="M34.0229 13.4985C35.5349 11.9865 37.9864 11.9865 39.4984 13.4985C41.0104 15.0105 41.0104 17.4619 39.4984 18.974L38.5336 19.9388L33.0581 14.4633L34.0229 13.4985Z" fill="#F8BBD0"/>
<path d="M30.0906 9.72482C32.4713 7.34414 36.3312 7.34414 38.7118 9.72481C41.0925 12.1055 41.0925 15.9653 38.7118 18.346L38.5335 18.5244L29.9123 9.90318L30.0906 9.72482Z" stroke="#F06292" stroke-width="2" stroke-linejoin="round"/>
<path d="M28.8218 35.7501L35 20.4091L31.5315 17C25.7229 22.6738 11.7977 29.2532 19.0394 32.6819C20.0013 33.1373 19.8846 33.1103 21.126 33.1933C21.2213 34.5643 22.3191 35.7917 23.619 36.6024C25.3436 37.6778 26.6648 36.29 28.8218 35.7501Z" fill="#F8BBD0"/>
<path d="M29.6787 15.8061L11.3789 29.3834L13.7401 34.6963L19.053 37.0576L32.6303 18.7577L29.6787 15.8061Z" stroke="#F06292" stroke-width="2" stroke-linejoin="round"/>
<path d="M35.5819 21.7096L27.3175 40.5998L21.7095 40.8949L19.053 37.0579L32.6303 18.758L35.5819 21.7096Z" stroke="#F06292" stroke-width="2" stroke-linejoin="round"/>
<path d="M26.7271 12.8549L7.83692 21.1193L7.54176 26.7273L11.3788 29.3838L29.6787 15.8065L26.7271 12.8549Z" stroke="#F06292" stroke-width="2" stroke-linejoin="round"/>
</svg>
