<svg width="48" height="48" viewBox="0 0 48 48" fill="none" xmlns="http://www.w3.org/2000/svg">
<circle cx="27" cy="27" r="12" fill="#FFCCBC"/>
<path d="M9.59454 18.2806C15.5374 15.5377 29.9831 12.612 40.2231 22.852" stroke="#D76456" stroke-width="2"/>
<path d="M17.3661 9.59473C21.328 11.8804 26.2347 18.7376 14.1661 27.8804C12.9471 28.6423 10.4175 30.6233 10.0518 32.4519" stroke="#D76456" stroke-width="2"/>
<path d="M26.9661 8.68066C28.1852 14.014 28.7947 27.7893 21.4804 40.2235" stroke="#D76456" stroke-width="2"/>
<path d="M35.652 12.7949C33.5186 13.8616 30.2574 18.5549 34.2803 28.7949C35.1946 30.7759 36.4745 35.1035 34.2803 36.5664" stroke="#D76456" stroke-width="2"/>
<path d="M8.71246 28.7826C11.2306 37.3489 20.2164 42.252 28.7827 39.7338C37.3491 37.2157 42.2521 28.2299 39.734 19.6636C37.2158 11.0972 28.2301 6.19419 19.6637 8.71232C11.0974 11.2305 6.19432 20.2162 8.71246 28.7826Z" stroke="#D76456" stroke-width="2" stroke-linecap="round" stroke-linejoin="round"/>
</svg>
