<svg width="48" height="48" viewBox="0 0 48 48" fill="none" xmlns="http://www.w3.org/2000/svg">
<circle cx="27" cy="26" r="12" fill="#CFD8DC"/>
<path d="M26.5521 20.2562L30.0602 28.1112L23.7689 33.857L16.1651 29.4669L17.9955 21.1456L26.5521 20.2562Z" stroke="#37474F" stroke-width="2" stroke-linecap="round" stroke-linejoin="round"/>
<path d="M26.5523 20.2562L29.479 15.187M23.7691 33.857L24.7423 39.4881M30.0603 28.1112L35.861 29.0101M16.2047 29.5742L11.2447 31.1345M17.9956 21.1456L14.3169 16.5716" stroke="#37474F" stroke-width="2" stroke-linecap="square" stroke-linejoin="round"/>
<path d="M27 8.5L30 14.5L36.5 14" stroke="#37474F" stroke-width="2" stroke-linecap="round" stroke-linejoin="round"/>
<path d="M37 34L36.5 29L40 26" stroke="#37474F" stroke-width="2" stroke-linecap="round" stroke-linejoin="round"/>
<path d="M16.0266 38.1516C23.7733 42.6241 33.679 39.9699 38.1515 32.2232C42.6241 24.4765 39.9699 14.5708 32.2232 10.0983C24.4765 5.62573 14.5708 8.27994 10.0982 16.0266C5.62569 23.7733 8.2799 33.679 16.0266 38.1516Z" stroke="#37474F" stroke-width="2" stroke-linecap="round" stroke-linejoin="round"/>
<path d="M9.5 17.5L14 16.5L15 11" stroke="#37474F" stroke-width="2" stroke-linecap="round" stroke-linejoin="round"/>
</svg>
