<svg width="48" height="48" viewBox="0 0 48 48" fill="none" xmlns="http://www.w3.org/2000/svg">
<path d="M17.5 25L26 34C26 34 21.5 32 17 32C12.5 32 9 34 9 34L17.5 25Z" fill="#BBDEFB"/>
<path d="M9.00007 33.44L17 25.7329" stroke="#2196F3" stroke-width="2" stroke-linecap="round"/>
<path d="M19.7522 10L13.838 15.9142C12.2759 17.4763 12.2759 20.0089 13.838 21.571L26 33.733" stroke="#2196F3" stroke-width="2" stroke-linecap="round"/>
<path d="M7 38.7329C8.83333 38.7329 13.1 37.8329 15.5 34.2329C18.5 37.5662 26.3 42.2329 33.5 34.2329C34.8333 35.7329 38.3 38.7329 41.5 38.7329" stroke="#2196F3" stroke-width="2" stroke-linecap="round" stroke-linejoin="round"/>
<circle cx="31" cy="22" r="4.5" fill="#BBDEFB" stroke="#BBDEFB"/>
<circle cx="29.5061" cy="20.7329" r="7" stroke="#2196F3" stroke-width="2"/>
</svg>
