<svg width="48" height="48" viewBox="0 0 48 48" fill="none" xmlns="http://www.w3.org/2000/svg">
<ellipse cx="26.7039" cy="22.0434" rx="10.444" ry="7.83989" transform="rotate(-50.2876 26.7039 22.0434)" fill="#FFECB3"/>
<path d="M33.4325 8.74502C35.4878 10.4521 36.5016 13.1658 36.3469 16.3076C36.1922 19.4499 34.8619 22.9378 32.3345 25.9808C29.807 29.0237 26.6225 30.9716 23.5619 31.7004C20.5019 32.429 17.6483 31.9304 15.593 30.2233C13.5377 28.5162 12.5238 25.8026 12.6785 22.6608C12.8332 19.5184 14.1636 16.0305 16.691 12.9876C19.2184 9.94465 22.4029 7.99674 25.4635 7.26798C28.5236 6.53935 31.3772 7.03793 33.4325 8.74502Z" stroke="#D1AC00" stroke-width="2.5"/>
<path d="M14.6594 30.7993L5.0754 42.3382" stroke="#D1AC00" stroke-width="2.5" stroke-linecap="round" stroke-linejoin="round"/>
<path d="M13.7599 28.7524C13.9554 30.8647 8.88019 37.1147 5.07545 42.3385" stroke="#D1AC00" stroke-width="2.5" stroke-linecap="round" stroke-linejoin="round"/>
<path d="M16.8369 31.3081C14.7246 31.5036 9.51223 37.6396 5.07544 42.3384" stroke="#D1AC00" stroke-width="2.5" stroke-linecap="round" stroke-linejoin="round"/>
<circle cx="38.6511" cy="39.6511" r="5.41016" transform="rotate(45 38.6511 39.6511)" fill="#FFECB3"/>
<circle cx="36.8684" cy="37.8683" r="7.39215" transform="rotate(45 36.8684 37.8683)" stroke="#D1AC00" stroke-width="2"/>
<path d="M36.8683 30.9834C36.1344 35.3802 34.2739 37.4005 29.8771 38.1344" stroke="#D1AC00" stroke-width="2" stroke-linecap="round" stroke-linejoin="round"/>
<path d="M43.9393 38.0542C39.5425 38.7881 37.5222 40.6485 36.7884 45.0454" stroke="#D1AC00" stroke-width="2" stroke-linecap="round" stroke-linejoin="round"/>
</svg>
