<svg width="48" height="48" viewBox="0 0 48 48" fill="none" xmlns="http://www.w3.org/2000/svg">
<circle cx="28" cy="27" r="11.5" fill="#92E9DC" stroke="#92E9DC"/>
<path d="M24.1968 24.1968C25.6067 26.6941 27.7302 28.7135 30.2953 29.996C32.8604 31.2785 35.75 31.7658 38.5938 31.3953M16.0984 26.8962C17.5694 29.8966 19.7165 32.5146 22.3709 34.5444C25.0252 36.5742 28.1144 37.9604 31.3953 38.5938" stroke="#0097A7" stroke-width="2" stroke-linecap="round" stroke-linejoin="round"/>
<path d="M24.1966 24.1968C21.329 24.1691 18.5184 24.9984 16.1252 26.5785C13.732 28.1586 11.8653 30.4174 10.7642 33.0653M25.908 15.8339C22.574 15.6073 19.2328 16.1575 16.1475 17.4413C13.0622 18.7251 10.3169 20.7074 8.12772 23.2322" stroke="#0097A7" stroke-width="2" stroke-linecap="round" stroke-linejoin="round"/>
<path d="M24.1965 24.197C25.6542 21.7273 26.3412 18.8786 26.1693 16.016C25.9974 13.1534 24.9746 10.4074 23.2319 8.12988M30.5834 29.8604C32.4465 27.0865 33.6405 23.9182 34.0714 20.6046C34.5023 17.291 34.1585 13.9227 33.0669 10.7645" stroke="#0097A7" stroke-width="2" stroke-linecap="round" stroke-linejoin="round"/>
<path d="M24.1967 40.3933C33.1418 40.3933 40.3933 33.1418 40.3933 24.1967C40.3933 15.2515 33.1418 8 24.1967 8C15.2515 8 8 15.2515 8 24.1967C8 33.1418 15.2515 40.3933 24.1967 40.3933Z" stroke="#0097A7" stroke-width="2" stroke-linecap="round" stroke-linejoin="round"/>
</svg>
